<?xml version="1.0" encoding="UTF-8" standalone="no"?>
<svg xmlns="http://www.w3.org/2000/svg" viewBox="0 0 118.724 118.724">
  <path fill="#00aa00" d="M37.294922,88.373993L37.308592,30.668915H25.308591999999997L25.326171999999996,77.487274A42.866245,43.226017,0,0,0,37.294922,88.373993Z"/>
  <path fill="#00aa00" d="M56.019531,94.393524L56.029331,44.680633H44.029331L44.048861,91.661102A42.866245,43.226017,0,0,0,56.019531,94.393524Z"/>
  <path fill="#00aa00" d="M74.748047,91.645477L74.75,35.475555H62.75L62.752,94.391571A42.866245,43.226017,0,0,0,74.74809400000001,91.645477Z"/>
  <path fill="#00aa00" d="M81.46875,24.560547V88.726562C86.121007,85.881113,90.19351,82.168533,93.46875,77.787109V24.560547Z"/>
  <path fill="#700000" d="
    M 69.076, 0.46852424
    L 69.07199999999999, 0.47252424
    A 59.362, 59.362, 0, 0, 1, 69.115, 0.48052424
    A 45.694, 48.77, 0, 0, 0, 69.07499999999999, 0.46952424Z
    M 69.115, 0.48052424A45.694, 48.77, 0, 0, 1,105.056, 48.091524
    A 45.694, 48.77, 0, 0, 1, 65.803, 96.320524A45.694, 48.77, 0, 0, 1, 62.178999999999995, 96.760524
    A 37.855, 37.855, 0, 0, 1, 59.370999999999995, 96.869524A37.855, 37.855, 0, 0, 1, 59.26, 96.861524
    A 37.855, 37.855, 0, 0, 1, 55.425999999999995, 96.658524
    A 45.694, 48.77, 0, 0, 1, 13.663999999999994, 48.098524A45.694, 48.77, 0, 0, 1, 49.35, 0.56952424
    A 59.362, 59.362, 0, 0, 0, 0, 59.015524
    A 59.362, 59.362, 0, 0, 0, 59.367, 118.37352
    A 59.362, 59.362, 0, 0, 0, 118.724, 59.015524
    A 59.362, 59.362, 0, 0, 0, 69.115, 0.48052424
    Z
  "/>
</svg>
