<?xml version="1.0" encoding="UTF-8" standalone="no"?>
<svg xmlns="http://www.w3.org/2000/svg" viewBox="0 0 529.167 118.731">
  <path fill="#00aa00" d="M37.294922,88.730469L37.308592,31.025391H25.308591999999997L25.326171999999996,77.84375A42.866245,43.226017,0,0,0,37.294922,88.730469Z"/>
  <path fill="#00aa00" d="M56.019531,94.75L56.029331,45.037109H44.029331L44.048861,92.017578A42.866245,43.226017,0,0,0,56.019531,94.75Z"/>
  <path fill="#00aa00" d="M74.748047,92.001953L74.75,35.832031H62.75L62.752,94.748047A42.866245,43.226017,0,0,0,74.74809400000001,92.001953Z"/>
  <path fill="#00aa00" d="M81.46875,24.560547V88.726562C86.121007,85.881113,90.19351,82.168533,93.46875,77.787109L93.469,24.560547Z"/>
  <path fill="#700000" d="
    M 69.076,0.825
    L 69.07199999999999,0.829
    A 59.362,59.362,0,0,1,69.115,0.837
    A 45.694,48.77,0,0,0,69.07499999999999,0.826
    Z
    M 69.115,0.837
    A 45.694,48.77,0,0,1,105.056,48.448
    A 45.694,48.77,0,0,1,65.803,96.67699999999999
    A 45.694,48.77,0,0,1,62.178999999999995,97.11699999999999
    A 37.855,37.855,0,0,1,59.370999999999995,97.22599999999998
    A 37.855,37.855,0,0,1,59.26,97.218
    A 37.855,37.855,0,0,1,55.426,97.015
    A 45.694,48.77,0,0,1,13.664,48.455
    A 45.694,48.77,0,0,1,49.35,0.926
    A 59.362,59.362,0,0,0,0,59.372
    A 59.362,59.362,0,0,0,59.367,118.73
    A 59.362,59.362,0,0,0,118.724,59.372
    A 59.362,59.362,0,0,0,69.115,0.837
    Z
  "/>
  <path fill="#700000" d="
    M 132.12,0
    V 118.73
    H 154.467
    V 75.04
    H 175.81
    L 198.822,118.73
    H 224.67000000000002
    L 198.156,70.87
    C 199.601,70.315,201.603,69.42500000000001,204.16,68.202
    C 206.828,66.98,209.439,65.089,211.996,62.532
    C 214.553,59.976,216.77800000000002,56.584999999999994,218.668,52.361
    C 220.668,48.025,221.668,42.522999999999996,221.668,35.852999999999994
    C 221.668,30.627999999999993,220.72400000000002,25.846999999999994,218.834,21.510999999999996
    C 217.055,17.063999999999997,214.442,13.283999999999995,210.996,10.170999999999996
    C 207.661,6.946999999999996,203.493,4.445999999999996,198.49,2.6669999999999963
    C 193.598,0.888,187.983,0,181.646,0
    Z
    M 154.467,19.677
    H 175.477C183.258,19.677,188.983,21.289,192.65200000000002,24.512999999999998
    C 196.43200000000002,27.737,198.322,32.073,198.322,37.521
    C 198.322,43.191,196.489,47.581,192.82,50.695
    C 189.15099999999998,53.807,184.482,55.363,178.81199999999998,55.363
    H 154.46699999999998
    Z
  "/>
  <path fill="#700000" d="
    M 238.061,0.01
    V 118.73700000000001
    H 260.404V69.714H263.019
    V 69.682H302.964
    V 49.002L260.404,49.034
    V 20.69H316.413
    V 0.01
    Z
  "/>
  <path fill="#700000" d="
    M 329.815,0.012
    V 118.739H408.135
    V 98.059H352.157
    V 20.692H408.13599999999997
    V 0.012M334.559,49.022
    V 69.72H354.769
    V 69.688H394.69
    V 49.015
    Z
  "/>
  <path fill="#700000" d="
    M 469.808,0.005
    A 59.362,59.362,0,0,0,410.44599999999997,59.367000000000004
    A 59.362,59.362,0,0,0,469.808,118.72900000000001
    A 59.362,59.362,0,0,0,529.17,59.36700000000001
    A 59.362,59.362,0,0,0,469.808,0.005
    Z
    M 469.808,21.519
    A 37.855,37.855,0,0,1,507.663,59.373999999999995
    A 37.855,37.855,0,0,1,469.808,97.22899999999998
    A 37.855,37.855,0,0,1,431.953,59.37399999999999
    A 37.855,37.855,0,0,1,469.808,21.51899999999999
    Z
  "/>
</svg>
